<svg width="34" height="31" viewBox="0 0 34 31" fill="none" xmlns="http://www.w3.org/2000/svg">
<g clip-path="url(#clip0_124_57)">
<path d="M20.8332 13.4413V8.05252C20.8332 6.838 20.591 6.59451 19.2614 6.59451L15.4925 6.51724C14.3185 6.51724 13.7315 6.51724 13.4941 6.86279C13.2568 7.20833 13.5198 7.68219 14.0442 8.62698C14.3361 9.15186 14.4933 9.5324 14.4933 10.1214V13.9997C14.4933 15.2245 14.4933 15.8383 13.9801 16.0205C13.4669 16.2013 13.0419 15.7902 12.1886 14.9679C10.1037 12.95 9.0163 10.4305 8.30261 7.68364C8.15506 7.11502 8.08128 6.83071 7.85995 6.67324C7.63863 6.51578 7.32268 6.51724 6.69399 6.51724H3.1656C2.39257 6.51724 2.00605 6.51724 1.76387 6.7651C1.5233 7.01442 1.56981 7.33226 1.66283 7.9665C2.50964 13.6921 8.0476 23.0802 18.2783 23.9754C20.0906 24.1329 20.8332 23.6882 20.8332 21.8832C20.8332 20.8597 20.8091 19.2063 22.2253 18.989C22.9678 18.8753 23.4666 19.1159 24.2958 19.7472C25.7328 20.8436 26.4866 22.1821 27.0111 23.1983C27.3591 23.8719 27.6173 24.0133 28.4352 24.0133H31.7615C33.4423 24.0133 33.8994 23.6401 33.1504 22.2054C32.304 20.5964 31.1056 19.1612 29.6285 17.9874C28.6084 17.1899 28.1 16.7918 28.0728 16.4973C28.0423 16.2043 28.416 15.7887 29.1634 14.9577C30.6068 13.3509 32.5731 10.83 33.4904 8.15458C33.9459 6.82779 33.5177 6.51724 32.0406 6.51724H29.0527C27.6045 6.51724 27.6061 6.47204 27.2645 7.96504C26.7095 10.3868 24.894 12.7152 23.1876 14.3001C22.3776 15.0524 21.8885 15.5059 21.3833 15.3207C20.8781 15.1355 20.8332 14.5727 20.8332 13.4413Z" stroke="white" stroke-width="1.5" stroke-linecap="round" stroke-linejoin="round"/>
</g>
<defs>
<clipPath id="clip0_124_57">
<rect width="33" height="30" fill="white" transform="translate(0.663818 0.265137)"/>
</clipPath>
</defs>
</svg>
